<?xml version="1.0" encoding="UTF-8"?><svg id="Capa_1" xmlns="http://www.w3.org/2000/svg" viewBox="0 0 36 36"><defs><style>.cls-1{fill:#fff;}.cls-2{fill:#999;}</style></defs><rect class="cls-2" x="2.76" y="2.76" width="30.48" height="30.48" rx="5.33" ry="5.33"/><g><g><path class="cls-1" d="M19.79,26.91c-.61,.06-1.21,.09-1.79,.09s-1.18-.03-1.8-.09c-.17,.3-.27,.65-.27,1.02,0,1.14,.92,2.07,2.07,2.07s2.07-.92,2.07-2.07c0-.37-.1-.72-.27-1.02Z"/><path class="cls-1" d="M19.38,7.38c0,.25-.07,.49-.18,.69-.38-.09-.78-.14-1.19-.14s-.81,.05-1.2,.14h0c-.12-.2-.18-.44-.18-.69,0-.76,.62-1.38,1.38-1.38s1.38,.62,1.38,1.38Z"/></g><path class="cls-1" d="M27,23.45l-.03-.19-.07-.44c-.19-1.17-2.43-3.17-2.52-4.46l-.11-1.55h0l-.15-2.08c-.14-1.96-1.09-3.7-2.52-4.9h.01s-.07-.06-.11-.09c-.17-.14-.36-.26-.54-.38-.11-.07-.21-.15-.33-.22-.28-.16-.56-.3-.86-.42-.03-.01-.06-.03-.09-.04-.53-.21-1.1-.31-1.67-.31h0c-.57,0-1.14,.1-1.67,.31-.03,.01-.06,.03-.09,.04-.3,.12-.59,.26-.86,.42-.11,.07-.22,.14-.32,.22-.19,.12-.37,.25-.54,.39-.03,.03-.07,.05-.11,.08h.01c-1.44,1.21-2.38,2.95-2.52,4.91l-.15,2.08h0l-.11,1.55c-.09,1.3-2.33,3.29-2.52,4.46l-.07,.45-.03,.19c-.01,.09,0,.17,0,.26,.01,.6,.38,1.15,.97,1.34h0c3.15,1.02,5.59,1.53,8.03,1.53,2.44,0,4.87-.51,8.03-1.53,.59-.19,.95-.73,.97-1.33,0-.09,.02-.18,0-.27Z"/></g></svg>