<?xml version="1.0" encoding="UTF-8"?><svg id="Capa_1" xmlns="http://www.w3.org/2000/svg" viewBox="0 0 36 36"><defs><style>.cls-1{fill:#fff;}.cls-2{fill:#999;}</style></defs><rect class="cls-2" x="2.76" y="2.76" width="30.48" height="30.48" rx="5.33" ry="5.33"/><path id="Globus" class="cls-1" d="M27.32,22.49c-.17,.35-.36,.69-.57,1.02-.41,.64-.89,1.25-1.44,1.8-1.7,1.7-3.89,2.74-6.26,2.98-.14,.01-.29,.03-.43,.03-.21,.01-.42,.02-.62,.02-.19,0-.38,0-.57-.02-.15,0-.3-.02-.44-.03-2.38-.23-4.59-1.27-6.3-2.98-.55-.55-1.03-1.16-1.44-1.8-.21-.33-.4-.67-.57-1.02-.67-1.38-1.02-2.91-1.02-4.49,0-1.38,.27-2.73,.79-3.97,.15-.35,.31-.69,.49-1.02,.47-.84,1.05-1.62,1.75-2.32,1.71-1.71,3.92-2.75,6.3-2.98,.15-.01,.29-.03,.44-.03,.19-.01,.38-.02,.57-.02,.21,0,.42,0,.62,.02,.14,0,.29,.02,.43,.03,2.36,.24,4.55,1.27,6.26,2.98,.7,.7,1.29,1.48,1.75,2.32,.18,.33,.35,.67,.49,1.02,.52,1.24,.79,2.58,.79,3.97,0,1.58-.35,3.11-1.02,4.49Zm-15.91,2.1c1.33,1.33,2.99,2.21,4.8,2.56-.99-1.08-1.79-2.3-2.39-3.63h-3.33c.28,.38,.59,.74,.93,1.08Zm-1.58-2.1h3.58c-.42-1.2-.67-2.44-.74-3.72h-3.96c.11,1.32,.49,2.58,1.12,3.72Zm-1.15-4.74h3.97c.02-1.27,.22-2.52,.59-3.72h-3.68c-.54,1.15-.84,2.41-.88,3.72Zm2.73-6.34c-.49,.49-.92,1.03-1.28,1.6h3.47c.04-.09,.07-.19,.11-.28,.61-1.43,1.44-2.74,2.5-3.88-1.81,.35-3.47,1.23-4.8,2.56Zm6.08-2.41c-.05,.05-.1,.1-.16,.15-1.13,1.13-2.02,2.44-2.63,3.86h2.79v-4.01Zm0,5.03h-3.18c-.4,1.19-.61,2.44-.64,3.72h3.82v-3.72Zm0,4.74h-3.8c.08,1.29,.35,2.54,.8,3.72h2.99v-3.72Zm0,4.74h-2.55c.6,1.22,1.4,2.34,2.39,3.33,.05,.05,.1,.1,.16,.15v-3.49Zm9.8-4.74h-3.9c-.07,1.28-.32,2.52-.74,3.72h3.53c.63-1.14,1.01-2.4,1.12-3.72Zm-2.7,5.82c.34-.34,.65-.7,.93-1.08h-3.28c-.59,1.33-1.39,2.55-2.38,3.62,1.78-.36,3.42-1.23,4.73-2.55Zm-6.08,2.46c.07-.07,.14-.13,.21-.2,.99-.99,1.79-2.11,2.39-3.33h-2.6v3.54Zm0-4.56h3.05c.45-1.18,.73-2.43,.8-3.72h-3.85v3.72Zm0-4.74h3.87c-.02-1.28-.24-2.53-.64-3.72h-3.23v3.72Zm.21-8.6c-.07-.07-.14-.14-.21-.2v4.06h2.84c-.62-1.42-1.5-2.73-2.63-3.86Zm5.87,2.26c-1.31-1.31-2.95-2.19-4.73-2.55,1.05,1.14,1.88,2.44,2.49,3.87,.04,.09,.08,.18,.11,.28h3.42c-.36-.57-.79-1.11-1.28-1.6Zm1.85,2.62h-3.62c.37,1.2,.57,2.45,.59,3.72h3.91c-.03-1.31-.34-2.57-.88-3.72Z"/></svg>