<?xml version="1.0" encoding="UTF-8"?><svg id="Capa_1" xmlns="http://www.w3.org/2000/svg" viewBox="0 0 36 36"><defs><style>.cls-1{fill:#fff;}.cls-2{fill:#999;}</style></defs><rect class="cls-2" x="2.76" y="2.76" width="30.48" height="30.48" rx="5.33" ry="5.33"/><g id="House_open"><path id="Roof" class="cls-1" d="M28.25,17.4l-10.09-8.59c-.18-.15-.44-.15-.62,0L7.75,17.14c-.22,.19-.22,.54,0,.73l.78,.66c.18,.15,.44,.15,.62,0l8.69-7.4,9,7.66c.18,.15,.44,.15,.62,0l.78-.66c.22-.19,.22-.54,0-.73Z"/><path id="Wall" class="cls-1" d="M17.85,12.3l-7.93,6.75v7.85c0,.22,.18,.4,.4,.4h4.85v-6.64h5.66v6.64h4.55c.22,0,.4-.18,.4-.4v-7.85l-7.93-6.75Z"/></g></svg>