<?xml version="1.0" encoding="UTF-8"?><svg id="Capa_1" xmlns="http://www.w3.org/2000/svg" viewBox="0 0 36 36"><defs><style>.cls-1{fill:#fff;}.cls-2{fill:#999;}</style></defs><rect class="cls-2" x="2.76" y="2.76" width="30.48" height="30.48" rx="5.33" ry="5.33"/><g><g><path class="cls-1" d="M10.19,22.56h15.63c.56,0,1.01-.45,1.01-1.01V11.06c0-.56-.45-1.01-1.01-1.01H10.19c-.56,0-1.01,.45-1.01,1.01v10.5c0,.56,.45,1.01,1.01,1.01Zm4.93-9.37c0-.2,.1-.38,.28-.48,.17-.1,.38-.1,.55,0l5.39,3.11c.17,.1,.28,.28,.28,.48s-.1,.38-.28,.48l-5.39,3.11c-.09,.05-.18,.08-.28,.08s-.19-.02-.28-.08c-.17-.1-.28-.28-.28-.48v-6.23Z"/><path class="cls-1" d="M13.89,24.89c0,.05,.01,.1,.01,.15s0,.1-.01,.15v.04s-.02,.08-.03,.12v.02h12.64c.18,0,.33-.15,.33-.33s-.15-.33-.33-.33H13.85v.02s.02,.08,.03,.12v.04Z"/><path class="cls-1" d="M11.82,24.74s-.02,.05-.02,.08v.03s-.02,.05-.02,.08v.03s-.01,.07-.01,.1,0,.07,0,.1v.03s.01,.05,.02,.08v.03s.02,.05,.03,.08v.02s.04,.06,.05,.09c.15,.27,.44,.46,.78,.46s.63-.19,.78-.46c.02-.03,.03-.06,.04-.09v-.02s.03-.05,.03-.08v-.03s.02-.05,.02-.08v-.03s.01-.07,.01-.1,0-.07,0-.1v-.03s-.01-.05-.02-.08v-.03s-.02-.05-.03-.08v-.02s-.04-.06-.05-.09c-.15-.28-.44-.46-.78-.46s-.63,.19-.78,.46c-.02,.03-.03,.06-.04,.09v.02Z"/><path class="cls-1" d="M11.42,25.2c0-.05-.01-.1-.01-.15s0-.1,.01-.15v-.04s.02-.08,.03-.12v-.02h-1.93c-.18,0-.33,.15-.33,.33s.15,.33,.33,.33h1.93v-.02s-.02-.08-.03-.12v-.04Z"/></g><g><path class="cls-1" d="M25.82,22.61H10.19c-.58,0-1.05-.47-1.05-1.05V11.06c0-.58,.47-1.05,1.05-1.05h15.63c.58,0,1.05,.47,1.05,1.05v10.5c0,.58-.47,1.05-1.05,1.05ZM10.19,10.09c-.53,0-.96,.43-.96,.96v10.5c0,.53,.43,.96,.96,.96h15.63c.53,0,.96-.43,.96-.96V11.06c0-.53-.43-.96-.96-.96H10.19Zm5.48,9.92c-.1,0-.21-.03-.3-.08-.19-.11-.3-.3-.3-.52v-6.23c0-.22,.11-.41,.3-.52,.19-.11,.41-.11,.6,0l5.39,3.11c.19,.11,.3,.3,.3,.52s-.11,.41-.3,.52l-5.39,3.11c-.09,.05-.19,.08-.3,.08Zm0-7.34c-.09,0-.18,.02-.26,.07-.16,.09-.26,.26-.26,.44v6.23c0,.18,.1,.35,.26,.44,.16,.09,.35,.09,.51,0l5.39-3.11c.16-.09,.26-.26,.26-.44s-.1-.35-.26-.44l-5.39-3.11c-.08-.05-.17-.07-.26-.07Z"/><path class="cls-1" d="M26.5,25.43H13.85s-.03,0-.03-.02c0-.01-.01-.02,0-.04h0v-.02s.02-.08,.03-.12h0v-.04c.01-.06,.01-.1,.01-.15s0-.09-.01-.15v-.03h0c0-.05-.01-.09-.02-.13h0v-.02s0-.03,0-.04c0-.01,.02-.02,.03-.02h12.64c.21,0,.38,.17,.38,.38s-.17,.38-.38,.38Zm-12.59-.09h12.59c.16,0,.29-.13,.29-.29s-.13-.29-.29-.29H13.91s.01,.06,.02,.09h0v.04h0c0,.06,.01,.11,.01,.16s0,.1-.01,.16v.03h0s-.01,.07-.02,.1Z"/><path class="cls-1" d="M12.65,25.98c-.34,0-.65-.19-.82-.48-.02-.03-.03-.06-.05-.1v-.02h0s-.02-.06-.03-.09v-.03s-.02-.05-.02-.08h0v-.03s0-.07,0-.11,0-.07,0-.11v-.02h0s0-.06,.02-.09v-.03s.02-.05,.03-.08h0v-.02s.04-.07,.05-.1c.16-.3,.48-.48,.82-.48s.65,.19,.82,.48c.02,.03,.03,.06,.05,.1v.02h0s.02,.06,.03,.09v.03s.02,.05,.02,.08h0v.03s0,.07,0,.11,0,.07,0,.11v.02h0s0,.06-.02,.09v.03s-.02,.05-.03,.08h0v.02s-.04,.07-.05,.1c-.16,.3-.48,.48-.82,.48Zm0-1.77c-.31,0-.59,.17-.74,.44-.01,.03-.03,.06-.04,.09h0v.02h0s-.02,.05-.02,.07v.03s-.02,.05-.02,.07h0v.03s0,.07,0,.1,0,.06,0,.1h0v.03s.01,.05,.02,.07v.03s.02,.05,.03,.07h0v.02s.03,.06,.05,.09c.15,.27,.43,.44,.74,.44s.59-.17,.74-.44c.01-.03,.03-.06,.04-.09h0v-.02s.02-.05,.03-.07v-.03s.02-.05,.02-.07h0v-.03s0-.07,0-.1,0-.06,0-.1h0v-.03s-.01-.05-.02-.07v-.03s-.02-.05-.03-.07h0v-.02s-.03-.06-.05-.09c-.15-.27-.43-.44-.74-.44Zm-.83,.53h0Z"/><path class="cls-1" d="M11.45,25.43h-1.93c-.21,0-.38-.17-.38-.38s.17-.38,.38-.38h1.93s.03,0,.03,.02c0,.01,.01,.02,0,.04h0v.02s-.02,.08-.03,.12h0v.04c-.01,.06-.01,.1-.01,.15s0,.09,.01,.15v.03h0c0,.05,.01,.09,.02,.13h0v.02s0,.03,0,.04-.02,.02-.03,.02Zm-1.93-.67c-.16,0-.29,.13-.29,.29s.13,.29,.29,.29h1.88s-.01-.06-.02-.09h0v-.04h0c0-.06-.01-.11-.01-.16s0-.1,.01-.16v-.03h0s.01-.07,.02-.1h-1.88Z"/></g><g><path class="cls-1" d="M10.13,22.62h15.63c.56,0,1.01-.45,1.01-1.01V11.11c0-.56-.45-1.01-1.01-1.01H10.13c-.56,0-1.01,.45-1.01,1.01v10.5c0,.56,.45,1.01,1.01,1.01Zm4.93-9.37c0-.2,.1-.38,.28-.48,.17-.1,.38-.1,.55,0l5.39,3.11c.17,.1,.28,.28,.28,.48s-.1,.38-.28,.48l-5.39,3.11c-.09,.05-.18,.08-.28,.08s-.19-.02-.28-.08c-.17-.1-.28-.28-.28-.48v-6.23Z"/><path class="cls-1" d="M13.83,24.95c0,.05,.01,.1,.01,.15s0,.1-.01,.15v.04s-.02,.08-.03,.12v.02h12.64c.18,0,.33-.15,.33-.33s-.15-.33-.33-.33H13.8v.02s.02,.08,.03,.12v.04Z"/><path class="cls-1" d="M11.77,24.8s-.02,.05-.02,.08v.03s-.02,.05-.02,.08v.03s-.01,.07-.01,.1,0,.07,0,.1v.03s.01,.05,.02,.08v.03s.02,.05,.03,.08v.02s.04,.06,.05,.09c.15,.27,.44,.46,.78,.46s.63-.19,.78-.46c.02-.03,.03-.06,.04-.09v-.02s.03-.05,.03-.08v-.03s.02-.05,.02-.08v-.03s.01-.07,.01-.1,0-.07,0-.1v-.03s-.01-.05-.02-.08v-.03s-.02-.05-.03-.08v-.02s-.04-.06-.05-.09c-.15-.28-.44-.46-.78-.46s-.63,.19-.78,.46c-.02,.03-.03,.06-.04,.09v.02Z"/><path class="cls-1" d="M11.36,25.26c0-.05-.01-.1-.01-.15s0-.1,.01-.15v-.04s.02-.08,.03-.12v-.02h-1.93c-.18,0-.33,.15-.33,.33s.15,.33,.33,.33h1.93v-.02s-.02-.08-.03-.12v-.04Z"/></g></g></svg>