<?xml version="1.0" encoding="UTF-8"?><svg id="Capa_1" xmlns="http://www.w3.org/2000/svg" viewBox="0 0 24 24"><defs><style>.cls-1{fill:#999;}</style></defs><path class="cls-1" d="M11.86,1.44C6.06,1.51,1.42,6.28,1.5,12.08c.08,5.8,4.84,10.43,10.64,10.36,5.8-.08,10.44-4.84,10.36-10.64-.08-5.8-4.84-10.44-10.64-10.36Zm1.16,3.5c1.07,0,1.38,.62,1.38,1.33,0,.88-.71,1.7-1.92,1.7-1.01,0-1.49-.51-1.46-1.35,0-.71,.59-1.68,2-1.68Zm-2.74,13.56c-.73,0-1.26-.44-.75-2.39l.84-3.45c.15-.55,.17-.77,0-.77-.22,0-1.17,.38-1.72,.76l-.36-.6c1.77-1.48,3.81-2.35,4.69-2.35,.73,0,.85,.86,.49,2.19l-.96,3.63c-.17,.64-.1,.86,.07,.86,.22,0,.94-.27,1.64-.82l.41,.55c-1.73,1.73-3.61,2.39-4.34,2.39Z"/></svg>