<?xml version="1.0" encoding="UTF-8"?><svg id="Capa_1" xmlns="http://www.w3.org/2000/svg" viewBox="0 0 36 36"><defs><style>.cls-1{fill:#fff;}.cls-2{fill:#999;}</style></defs><rect class="cls-2" x="2.76" y="2.76" width="30.48" height="30.48" rx="5.33" ry="5.33"/><g><circle class="cls-1" cx="18" cy="14.29" r="2"/><path class="cls-1" d="M18,7.58c-3.89,0-7.06,3.17-7.06,7.06,0,2.73,3.5,8.45,5.67,11.73,.18,.27,.35,.53,.51,.76,.37,.55,.68,1,.88,1.29,.21-.29,.51-.74,.88-1.29,.16-.23,.33-.49,.51-.76,2.17-3.28,5.67-9,5.67-11.73,0-3.89-3.17-7.06-7.06-7.06Zm0,10.72c-2.21,0-4.01-1.8-4.01-4.01s1.8-4.01,4.01-4.01,4.01,1.8,4.01,4.01-1.8,4.01-4.01,4.01Z"/></g></svg>