<?xml version="1.0" encoding="UTF-8"?><svg id="Capa_1" xmlns="http://www.w3.org/2000/svg" viewBox="0 0 36 36"><defs><style>.cls-1{fill:#fff;}.cls-2{fill:#999;}</style></defs><rect class="cls-2" x="2.76" y="2.76" width="30.48" height="30.48" rx="5.33" ry="5.33"/><g><rect class="cls-1" x="5" y="13" width="26" height="10" rx="2.28" ry="2.28"/><g><path class="cls-2" d="M9.58,16.06h-.02l-.9,.49-.14-.54,1.14-.61h.6v5.2h-.68v-4.54Z"/><path class="cls-2" d="M12.95,20.6v-.43l.55-.54c1.33-1.26,1.93-1.93,1.94-2.72,0-.53-.26-1.02-1.03-1.02-.47,0-.86,.24-1.1,.44l-.22-.5c.36-.3,.87-.53,1.47-.53,1.12,0,1.59,.77,1.59,1.51,0,.96-.7,1.74-1.79,2.79l-.42,.38v.02h2.33v.58h-3.32Z"/><path class="cls-2" d="M18.03,19.79c.2,.13,.66,.33,1.15,.33,.9,0,1.18-.58,1.18-1.01,0-.73-.66-1.04-1.34-1.04h-.39v-.53h.39c.51,0,1.16-.26,1.16-.88,0-.42-.26-.78-.91-.78-.42,0-.82,.18-1.04,.34l-.18-.51c.27-.2,.8-.4,1.36-.4,1.02,0,1.49,.61,1.49,1.24,0,.54-.32,.99-.96,1.22v.02c.64,.13,1.16,.61,1.16,1.34,0,.83-.65,1.56-1.89,1.56-.58,0-1.1-.18-1.35-.35l.19-.54Z"/><path class="cls-2" d="M24.94,20.6v-1.42h-2.41v-.46l2.32-3.32h.76v3.23h.73v.55h-.73v1.42h-.66Zm0-1.97v-1.73c0-.27,0-.54,.02-.82h-.02c-.16,.3-.29,.53-.43,.77l-1.27,1.77v.02h1.7Z"/></g></g></svg>