<svg xmlns="http://www.w3.org/2000/svg" viewBox="0 0 282.99 77.55"><defs><style>.cls-1{fill:#fff;}</style></defs><g id="Capa_2" data-name="Capa 2"><g id="Layer_1" data-name="Layer 1"><path class="cls-1" d="M112.37,11.69a9,9,0,0,0-4.44,1.16,7.31,7.31,0,0,0-3,3.22,5.65,5.65,0,0,0-2.5-3.22,8.15,8.15,0,0,0-4.28-1.16A8.52,8.52,0,0,0,93.32,13a9.1,9.1,0,0,0-2.92,3.27V12.38H87.49V36.2h3.14V22.92A13.51,13.51,0,0,1,91,19.51a8.08,8.08,0,0,1,1.24-2.7A5.64,5.64,0,0,1,94.41,15a7.1,7.1,0,0,1,3.12-.65,5.33,5.33,0,0,1,2.28.45A3.84,3.84,0,0,1,101.29,16a5.19,5.19,0,0,1,.79,1.82,9.86,9.86,0,0,1,.25,2.24V36.2h3.13V22.74a17.81,17.81,0,0,1,.3-3.15,8.37,8.37,0,0,1,1-2.68,5.3,5.3,0,0,1,1.92-1.84,6.1,6.1,0,0,1,3-.7c2,0,3.45.5,4.24,1.49a6.88,6.88,0,0,1,1.2,4.36v16h3.14V20.09c0-5.58-2.67-8.4-7.94-8.4"></path><path class="cls-1" d="M145.29,33.51c-1,0-1.55-.52-1.55-1.6V19.4a8.32,8.32,0,0,0-.81-3.91,6.15,6.15,0,0,0-2-2.36A7.84,7.84,0,0,0,138.06,12a16.09,16.09,0,0,0-6.91.16,8.44,8.44,0,0,0-3,1.44,6.8,6.8,0,0,0-2,2.51,9.92,9.92,0,0,0-.88,3.61v.15h3.15v-.13a5.07,5.07,0,0,1,1.77-4.08,7.22,7.22,0,0,1,4.4-1.28,12.7,12.7,0,0,1,2.38.21,5.21,5.21,0,0,1,1.91.73,3.62,3.62,0,0,1,1.27,1.44,5.1,5.1,0,0,1,.48,2.33,3.87,3.87,0,0,1-.25,1.5,2.15,2.15,0,0,1-.67.89,2.58,2.58,0,0,1-1.08.45,13.84,13.84,0,0,1-1.58.23c-1.57.18-3.09.38-4.6.57a16.52,16.52,0,0,0-4.1,1,7,7,0,0,0-2.95,2.16,6.26,6.26,0,0,0-1.12,3.94,7.39,7.39,0,0,0,.62,3.14,6.26,6.26,0,0,0,1.73,2.19,7.22,7.22,0,0,0,2.56,1.26,12.18,12.18,0,0,0,3.12.39,12.77,12.77,0,0,0,3-.32,8.65,8.65,0,0,0,2.28-.93,8.5,8.5,0,0,0,1.8-1.51,23,23,0,0,0,1.45-1.81,8.58,8.58,0,0,0,.11,1.38,3.09,3.09,0,0,0,.5,1.35,2.39,2.39,0,0,0,1.08.89,4.39,4.39,0,0,0,1.81.31,9,9,0,0,0,1-.05c.26,0,.56-.07.9-.13l.11,0V33.27l-.18.08a2.28,2.28,0,0,1-.87.16m-4.69-10v3.46a6.89,6.89,0,0,1-2.41,5.33,7.52,7.52,0,0,1-2.58,1.43,8.09,8.09,0,0,1-5,.19,5.19,5.19,0,0,1-1.65-.91,4.45,4.45,0,0,1-1.12-1.43,4,4,0,0,1-.43-1.87,3.36,3.36,0,0,1,1-2.58A7,7,0,0,1,131,25.69a21.25,21.25,0,0,1,3.51-.74c1.3-.18,2.56-.36,3.77-.57a11.32,11.32,0,0,0,1.39-.33,2,2,0,0,0,1-.57"></path><path class="cls-1" d="M166,27.61a7.92,7.92,0,0,1-.71,2.65,7.44,7.44,0,0,1-1.48,2.08,6.81,6.81,0,0,1-2.06,1.37,6.25,6.25,0,0,1-2.46.5,7.15,7.15,0,0,1-3.55-.86,7.9,7.9,0,0,1-2.53-2.24,9.93,9.93,0,0,1-1.53-3.19,12.73,12.73,0,0,1,0-7.27,10.09,10.09,0,0,1,1.53-3.18,7.71,7.71,0,0,1,2.53-2.25,7.36,7.36,0,0,1,3.55-.84,6.14,6.14,0,0,1,4.38,1.47,7.71,7.71,0,0,1,2.15,4.08l0,.11H169l0-.15a8.74,8.74,0,0,0-3.18-6.16,10.41,10.41,0,0,0-6.49-2,11.16,11.16,0,0,0-4.83,1,10.51,10.51,0,0,0-3.54,2.73,11.56,11.56,0,0,0-2.16,4,15.24,15.24,0,0,0-.75,4.85,15.24,15.24,0,0,0,.75,4.87,11.66,11.66,0,0,0,2.16,4,10.31,10.31,0,0,0,3.54,2.7,11.06,11.06,0,0,0,4.83,1A9.47,9.47,0,0,0,166,34.41a11.07,11.07,0,0,0,3.18-6.77l0-.15H166v.12"></path><path class="cls-1" d="M197.79,11.69a9,9,0,0,0-4.44,1.16,7.29,7.29,0,0,0-3,3.22,5.75,5.75,0,0,0-2.48-3.22,8.28,8.28,0,0,0-4.3-1.16A8.49,8.49,0,0,0,178.75,13a8.9,8.9,0,0,0-2.92,3.26V12.38h-2.91V36.2h3.14V22.92a13.51,13.51,0,0,1,.41-3.41,8.06,8.06,0,0,1,1.23-2.7A5.75,5.75,0,0,1,179.84,15a7.07,7.07,0,0,1,3.12-.65,5.25,5.25,0,0,1,2.27.45A3.7,3.7,0,0,1,186.71,16a5,5,0,0,1,.8,1.82,9.74,9.74,0,0,1,.25,2.24V36.2h3.14V22.74a16.11,16.11,0,0,1,.3-3.15,7.9,7.9,0,0,1,1-2.68,5.27,5.27,0,0,1,1.91-1.84,6.1,6.1,0,0,1,3-.7c2,0,3.45.5,4.23,1.49a6.76,6.76,0,0,1,1.22,4.36v16h3.13V20.09c0-5.58-2.67-8.4-8-8.4"></path><polygon class="cls-1" points="211.91 36.2 215.05 36.2 215.05 33.86 215.05 14.12 215.05 12.38 211.91 12.38 211.91 15.97 211.91 33.4 211.91 36.2"></polygon><polygon class="cls-1" points="221.27 36.2 224.41 36.2 224.41 34.17 224.41 5.33 224.41 3.33 221.27 3.33 221.27 8.72 221.27 32.63 221.27 36.2"></polygon><polygon class="cls-1" points="230.63 36.2 233.78 36.2 233.78 32.47 233.78 6.25 233.78 3.33 230.63 3.33 230.63 5.17 230.63 32.62 230.63 36.2"></polygon><path class="cls-1" d="M258.8,33.51c-1.05,0-1.56-.52-1.56-1.6V19.4a8.33,8.33,0,0,0-.79-3.91,6.17,6.17,0,0,0-2-2.36A7.65,7.65,0,0,0,251.56,12a16.1,16.1,0,0,0-6.91.16,8.66,8.66,0,0,0-3,1.44,7,7,0,0,0-2,2.51,9.77,9.77,0,0,0-.89,3.61v.15h3.15v-.13a5,5,0,0,1,1.77-4.08,7.23,7.23,0,0,1,4.39-1.28,12.62,12.62,0,0,1,2.38.21,5.09,5.09,0,0,1,1.92.73,3.62,3.62,0,0,1,1.27,1.44,5,5,0,0,1,.47,2.33,4.11,4.11,0,0,1-.23,1.5,2.35,2.35,0,0,1-.68.89,2.52,2.52,0,0,1-1.08.45,14,14,0,0,1-1.59.23c-1.56.18-3.08.38-4.59.57a16.18,16.18,0,0,0-4.1,1,7.08,7.08,0,0,0-3,2.16,6.3,6.3,0,0,0-1.11,3.94,7.24,7.24,0,0,0,.63,3.14,5.84,5.84,0,0,0,1.73,2.19,7.17,7.17,0,0,0,2.55,1.26,12.18,12.18,0,0,0,3.12.39,13,13,0,0,0,3-.32,8.65,8.65,0,0,0,2.26-.93,7.46,7.46,0,0,0,1.81-1.51,19.4,19.4,0,0,0,1.44-1.81,11.2,11.2,0,0,0,.11,1.38,3.57,3.57,0,0,0,.5,1.35,2.53,2.53,0,0,0,1.09.89,4.34,4.34,0,0,0,1.8.31,9,9,0,0,0,1-.05c.26,0,.56-.07.89-.13l.11,0V33.27l-.18.08a2.16,2.16,0,0,1-.86.16m-4.7-10v3.46a7,7,0,0,1-.64,3,7.12,7.12,0,0,1-1.76,2.29,7.61,7.61,0,0,1-2.58,1.43,7.92,7.92,0,0,1-5,.19,5,5,0,0,1-1.65-.91,4.8,4.8,0,0,1-1.14-1.43,4,4,0,0,1-.42-1.87,3.28,3.28,0,0,1,1-2.58,6.86,6.86,0,0,1,2.58-1.41A21.25,21.25,0,0,1,248,25c1.3-.18,2.56-.36,3.77-.57a10.91,10.91,0,0,0,1.39-.33,2,2,0,0,0,1-.57"></path><path class="cls-1" d="M282.57,17.09a7,7,0,0,0-1.43-2.91,6.76,6.76,0,0,0-2.73-1.84,11.84,11.84,0,0,0-4.18-.65A8.78,8.78,0,0,0,269.55,13a7,7,0,0,0-2.81,3.12V12.38H263.6V36.2h3.14V22.33a10.75,10.75,0,0,1,.55-3.18,7.92,7.92,0,0,1,1.45-2.51A6.43,6.43,0,0,1,271,15a7.08,7.08,0,0,1,3-.61,6.72,6.72,0,0,1,2.84.54,4.58,4.58,0,0,1,1.8,1.46,5.72,5.72,0,0,1,.94,2.22,13.35,13.35,0,0,1,.27,2.77V36.2H283V20.91a16,16,0,0,0-.42-3.82"></path><path class="cls-1" d="M213.54,3.19a2,2,0,1,0,0,4,2,2,0,0,0,0-3.95"></path><rect class="cls-1" x="69.12" width="2" height="77.55"></rect><path class="cls-1" d="M97.45,51.8a10,10,0,0,0-8.39,4,14.94,14.94,0,0,0-2.59,8.81c0,8,4.11,12.85,11,12.85,5.78,0,9.25-2.85,10.61-8.72l0-.15H104.9l0,.09c-1,4-3.59,6.06-7.43,6.06-5.27,0-7.7-4.6-7.8-9.21h18.49v-.12c.15-4.41-1.1-8.34-3.44-10.76a9.71,9.71,0,0,0-7.26-2.88m-7.79,11c.49-4.17,3.08-8.33,7.79-8.33s7.33,4.17,7.51,8.33Z"></path><path class="cls-1" d="M130.18,56.78c-1.29-3-4.5-5-8.31-5-8.07,0-10.93,6.92-10.93,12.84a14.77,14.77,0,0,0,2.69,9,10,10,0,0,0,8.24,3.86c3.59,0,7.19-2.13,8.55-5v4.32h3V43.27h-3.19V56.78m0,7.86c0,7.47-4.29,10.13-8.31,10.13-5.72,0-7.75-5.45-7.75-10.13s2-10.12,7.75-10.12c4,0,8.31,2.66,8.31,10.12"></path><path class="cls-1" d="M155.35,65.25c0,7-3.82,9.52-7.1,9.52-4.33,0-6.15-1.88-6.3-6.49V52.5h-3.19V68.23c0,6.14,2.88,9.26,8.56,9.26a9,9,0,0,0,8.27-4.82v4.12h2.95V52.5h-3.19V65.25"></path><path class="cls-1" d="M181.08,68c-.36,3.91-3.25,6.74-6.87,6.74-5.71,0-8.31-5.25-8.31-10.13s2.6-10.12,8.31-10.12c3.56,0,5.87,2,6.69,5.67l0,.1h3.17v-.14c-.63-5.23-4.32-8.35-9.87-8.35a10.7,10.7,0,0,0-8.54,3.82,14.1,14.1,0,0,0-2.95,9,14.11,14.11,0,0,0,2.95,9,10.7,10.7,0,0,0,8.54,3.82c5.41,0,9.26-3.61,10-9.43l0-.13h-3.19V68"></path><path class="cls-1" d="M208.38,74.07a1.44,1.44,0,0,1-1.61-1.65V59.66c0-5.22-3-7.86-9-7.86-6.1,0-9.6,2.9-9.87,8.18v.13h3.18V60c0-2.05.93-5.48,6.3-5.48,4.22,0,6.17,1.53,6.17,4.82,0,2.59-1.32,2.87-3.66,3.14l-1.31.15c-6,.67-11.71,1.31-11.71,7.71,0,4.41,3.14,7.16,8.18,7.16,4.6,0,6.72-1.74,8.74-4.75.07,3.36,1.42,4.05,3.57,4.05a7.7,7.7,0,0,0,1.93-.19l.1,0V73.83l-.17.06a2.37,2.37,0,0,1-.88.18m-9.72-9c.83-.11,1.69-.24,2.51-.38a4.44,4.44,0,0,0,2.42-.94v3.57a6.82,6.82,0,0,1-2,5,8.82,8.82,0,0,1-6.29,2.43c-3.41,0-5.24-2.39-5.24-4.63,0-3.83,4.16-4.42,8.57-5"></path><path class="cls-1" d="M217.41,45.27h-3.19V52.5H210v2.71h4.19V71.54c0,2.15.34,3.5,1.17,4.34s2.1,1.19,4.18,1.19c.44,0,.88,0,1.31,0s.85,0,1.29,0h.13V74.2h-.14a20.78,20.78,0,0,1-2.49.14c-1.94-.12-2.26-1-2.26-3V55.21h4.89V52.5h-4.89V45.27"></path><path class="cls-1" d="M247.25,51.8a10.68,10.68,0,0,0-8.54,3.82,14.1,14.1,0,0,0-3,9,14.13,14.13,0,0,0,3,9,11.46,11.46,0,0,0,17.08,0,14.07,14.07,0,0,0,3-9,14,14,0,0,0-3-9,10.68,10.68,0,0,0-8.54-3.82m0,23c-5.71,0-8.31-5.25-8.31-10.13s2.6-10.13,8.31-10.13,8.31,5.26,8.31,10.13-2.6,10.13-8.31,10.13"></path><path class="cls-1" d="M273.77,51.8a8.35,8.35,0,0,0-7.66,4.57V52.5h-3.18V76.79h3.18V62.64c.09-4.86,3.08-8.12,7.43-8.12,4.08,0,6,2.27,6,7.14V76.79h3.18V61.2c0-6.5-2.75-9.4-8.93-9.4"></path><path class="cls-1" d="M227.37,52.5h3.18V76.79h-3.18V52.5M229,43.66a2,2,0,1,0,2,2,2,2,0,0,0-2-2"></path><path class="cls-1" d="M0,37.54v14.3c10.2-13.24,25.64-20.06,25.64-4.62,0,6.52,5.92-.34,10.54-4.11,6.58-5.39,15.05-4.81,16.57,5.33H53V37.5c0-13.34-9.56-14.64-16.8-8.71-4.62,3.77-10.54,10.63-10.54,4.11,0-6.25-2.53-8.86-6.23-8.86C14,24,6.07,29.66,0,37.54"></path><path class="cls-1" d="M0,18.77V32.35C10.44,19.9,25.65,13,25.65,28.48c0,6.51,5.92-.36,10.54-4.12,6.58-5.4,15.05-4.82,16.57,5.31H53V18.75C53,5.4,43.43,4.09,36.19,10c-4.62,3.77-10.54,10.63-10.54,4.11,0-6.26-2.53-8.86-6.23-8.86C14,5.29,6.08,10.89,0,18.77"></path></g></g></svg>